<svg width="48" height="49" viewBox="0 0 48 49" fill="none" xmlns="http://www.w3.org/2000/svg">
<path fill-rule="evenodd" clip-rule="evenodd" d="M24 0.717285C10.7452 0.717285 0 11.4625 0 24.7173C0 37.9721 10.7452 48.7173 24 48.7173C37.2548 48.7173 48 37.9721 48 24.7173C48 11.4625 37.2548 0.717285 24 0.717285ZM18.7233 11.9946C20.0886 11.9325 20.5249 11.9173 24.0012 11.9173H23.9972C27.4746 11.9173 27.9092 11.9325 29.2746 11.9946C30.6373 12.057 31.5679 12.2728 32.384 12.5893C33.2266 12.916 33.9386 13.3533 34.6506 14.0653C35.3627 14.7768 35.8 15.4909 36.128 16.3328C36.4427 17.1467 36.6587 18.0768 36.7227 19.4395C36.784 20.8048 36.8 21.2411 36.8 24.7174C36.8 28.1937 36.784 28.6289 36.7227 29.9943C36.6587 31.3564 36.4427 32.2868 36.128 33.101C35.8 33.9426 35.3627 34.6567 34.6506 35.3682C33.9394 36.0802 33.2264 36.5186 32.3848 36.8455C31.5703 37.1621 30.6391 37.3778 29.2765 37.4402C27.9111 37.5023 27.4762 37.5176 23.9996 37.5176C20.5236 37.5176 20.0876 37.5023 18.7222 37.4402C17.3598 37.3778 16.4294 37.1621 15.615 36.8455C14.7736 36.5186 14.0595 36.0802 13.3483 35.3682C12.6365 34.6567 12.1992 33.9426 11.872 33.1007C11.5557 32.2868 11.34 31.3567 11.2773 29.994C11.2155 28.6287 11.2 28.1937 11.2 24.7174C11.2 21.2411 11.216 20.8046 11.2771 19.4392C11.3384 18.0771 11.5544 17.1467 11.8717 16.3325C12.1997 15.4909 12.6371 14.7768 13.3491 14.0653C14.0606 13.3536 14.7747 12.9162 15.6166 12.5893C16.4305 12.2728 17.3606 12.057 18.7233 11.9946Z" fill="white"/>
<path fill-rule="evenodd" clip-rule="evenodd" d="M22.853 14.2239C23.0759 14.2236 23.3158 14.2237 23.5746 14.2238L24.0013 14.2239C27.4189 14.2239 27.824 14.2362 29.1736 14.2975C30.4216 14.3546 31.0989 14.5631 31.5501 14.7383C32.1475 14.9703 32.5733 15.2476 33.0211 15.6957C33.4691 16.1437 33.7464 16.5703 33.979 17.1677C34.1542 17.6183 34.363 18.2957 34.4198 19.5437C34.4811 20.893 34.4944 21.2984 34.4944 24.7144C34.4944 28.1304 34.4811 28.5358 34.4198 29.8851C34.3627 31.1331 34.1542 31.8105 33.979 32.2612C33.747 32.8585 33.4691 33.2838 33.0211 33.7316C32.5731 34.1796 32.1477 34.4569 31.5501 34.6889C31.0995 34.8649 30.4216 35.0729 29.1736 35.13C27.8242 35.1913 27.4189 35.2047 24.0013 35.2047C20.5834 35.2047 20.1783 35.1913 18.8289 35.13C17.5809 35.0724 16.9036 34.8639 16.4521 34.6887C15.8548 34.4566 15.4281 34.1793 14.9801 33.7313C14.5321 33.2833 14.2548 32.8577 14.0222 32.2601C13.847 31.8094 13.6382 31.1321 13.5814 29.8841C13.5201 28.5347 13.5078 28.1294 13.5078 24.7112C13.5078 21.293 13.5201 20.8898 13.5814 19.5405C13.6385 18.2925 13.847 17.6151 14.0222 17.1639C14.2542 16.5666 14.5321 16.1399 14.9801 15.6919C15.4281 15.2439 15.8548 14.9666 16.4521 14.734C16.9033 14.558 17.5809 14.35 18.8289 14.2927C20.0097 14.2394 20.4674 14.2234 22.853 14.2207V14.2239ZM30.8339 16.3493C29.9859 16.3493 29.2978 17.0365 29.2978 17.8847C29.2978 18.7327 29.9859 19.4208 30.8339 19.4208C31.6819 19.4208 32.3699 18.7327 32.3699 17.8847C32.3699 17.0367 31.6819 16.3487 30.8339 16.3487V16.3493ZM17.4279 24.7173C17.4279 21.0873 20.3709 18.1441 24.001 18.1439C27.6312 18.1439 30.5736 21.0872 30.5736 24.7173C30.5736 28.3475 27.6314 31.2894 24.0013 31.2894C20.3711 31.2894 17.4279 28.3475 17.4279 24.7173Z" fill="white"/>
<path d="M24.0012 20.4507C26.3575 20.4507 28.2679 22.3608 28.2679 24.7174C28.2679 27.0737 26.3575 28.9841 24.0012 28.9841C21.6447 28.9841 19.7345 27.0737 19.7345 24.7174C19.7345 22.3608 21.6447 20.4507 24.0012 20.4507Z" fill="white"/>
</svg>
