<svg width="48" height="49" viewBox="0 0 48 49" fill="none" xmlns="http://www.w3.org/2000/svg">
<path fill-rule="evenodd" clip-rule="evenodd" d="M24 48.7173C10.7452 48.7173 0 37.9721 0 24.7173C0 11.4625 10.7452 0.717285 24 0.717285C37.2548 0.717285 48 11.4625 48 24.7173C48 37.9721 37.2548 48.7173 24 48.7173ZM24.3344 23.3703C26.2995 23.3703 35.8544 17.9973 35.8544 17.9973L35.8698 17.0373C35.8698 15.9774 35.0096 15.1173 33.9469 15.1173H14.7219C13.6602 15.1173 12.8 15.9774 12.8 17.0373V17.8926C12.8 17.8926 22.4595 23.3703 24.3344 23.3703ZM12.8154 20.8773C12.8144 20.8773 22.4595 26.0103 24.3344 26.0103C26.3898 26.0103 35.8544 20.8773 35.8544 20.8773L35.8698 32.3973C35.8698 33.4571 35.0096 34.3173 33.9469 34.3173H14.7219C13.6611 34.3173 12.8 33.4571 12.8 32.3973L12.8154 20.8773Z" fill="white"/>
</svg>
