<svg width="33" height="33" viewBox="0 0 33 33" fill="none" xmlns="http://www.w3.org/2000/svg">
<path d="M28.4252 8.81534H24.4252C24.4252 6.69361 23.5823 4.65877 22.082 3.15848C20.5817 1.65819 18.5469 0.815338 16.4252 0.815338C14.3034 0.815338 12.2686 1.65819 10.7683 3.15848C9.26803 4.65877 8.42517 6.69361 8.42517 8.81534H4.42517C3.36431 8.81534 2.34689 9.23677 1.59674 9.98691C0.846598 10.7371 0.425171 11.7545 0.425171 12.8153L0.425171 26.1487C0.427288 27.9161 1.13035 29.6106 2.38013 30.8604C3.62991 32.1102 5.32438 32.8132 7.09184 32.8153H25.7585C27.526 32.8132 29.2204 32.1102 30.4702 30.8604C31.72 29.6106 32.4231 27.9161 32.4252 26.1487V12.8153C32.4252 11.7545 32.0037 10.7371 31.2536 9.98691C30.5035 9.23677 29.486 8.81534 28.4252 8.81534ZM16.4252 3.482C17.8397 3.482 19.1962 4.04391 20.1964 5.0441C21.1966 6.0443 21.7585 7.40085 21.7585 8.81534H11.0918C11.0918 7.40085 11.6537 6.0443 12.6539 5.0441C13.6541 4.04391 15.0107 3.482 16.4252 3.482ZM29.7585 26.1487C29.7585 27.2095 29.3371 28.227 28.5869 28.9771C27.8368 29.7272 26.8194 30.1487 25.7585 30.1487H7.09184C6.03097 30.1487 5.01356 29.7272 4.26341 28.9771C3.51327 28.227 3.09184 27.2095 3.09184 26.1487V12.8153C3.09184 12.4617 3.23231 12.1226 3.48236 11.8725C3.73241 11.6225 4.07155 11.482 4.42517 11.482H8.42517V14.1487C8.42517 14.5023 8.56565 14.8414 8.8157 15.0915C9.06574 15.3415 9.40488 15.482 9.7585 15.482C10.1121 15.482 10.4513 15.3415 10.7013 15.0915C10.9514 14.8414 11.0918 14.5023 11.0918 14.1487V11.482H21.7585V14.1487C21.7585 14.5023 21.899 14.8414 22.149 15.0915C22.3991 15.3415 22.7382 15.482 23.0918 15.482C23.4455 15.482 23.7846 15.3415 24.0346 15.0915C24.2847 14.8414 24.4252 14.5023 24.4252 14.1487V11.482H28.4252C28.7788 11.482 29.1179 11.6225 29.368 11.8725C29.618 12.1226 29.7585 12.4617 29.7585 12.8153V26.1487Z" fill="black"/>
</svg>
