<svg width="48" height="49" viewBox="0 0 48 49" fill="none" xmlns="http://www.w3.org/2000/svg">
<path fill-rule="evenodd" clip-rule="evenodd" d="M24 0.717285C10.7452 0.717285 0 11.4625 0 24.7173C0 37.9721 10.7452 48.7173 24 48.7173C37.2548 48.7173 48 37.9721 48 24.7173C48 11.4625 37.2548 0.717285 24 0.717285ZM23.3316 21.0552L23.2812 20.2248C23.1301 18.0724 24.4563 16.1064 26.5548 15.3437C27.327 15.0726 28.6364 15.0387 29.4926 15.276C29.8283 15.3776 30.4663 15.7166 30.9195 16.0217L31.7421 16.581L32.6486 16.2928C33.1523 16.1403 33.8238 15.8861 34.1259 15.7166C34.4113 15.5641 34.6631 15.4793 34.6631 15.5302C34.6631 15.8183 34.042 16.8013 33.5216 17.3436C32.8165 18.1063 33.018 18.1741 34.4449 17.6656C35.3011 17.3775 35.3178 17.3775 35.15 17.6995C35.0492 17.869 34.5288 18.4622 33.9748 19.0045C33.0347 19.9367 32.9844 20.0384 32.9844 20.818C32.9844 22.0213 32.4136 24.5296 31.8428 25.9024C30.7852 28.4785 28.5189 31.1393 26.2526 32.4782C23.063 34.3595 18.8157 34.834 15.24 33.7324C14.0481 33.3595 12 32.4104 12 32.2409C12 32.1901 12.6211 32.1223 13.3766 32.1054C14.9546 32.0715 16.5326 31.6308 17.8756 30.8512L18.7822 30.3089L17.7413 29.953C16.264 29.4445 14.9378 28.2751 14.6021 27.1735C14.5013 26.8176 14.5349 26.8006 15.475 26.8006L16.4487 26.7837L15.6261 26.3939C14.6524 25.9024 13.7627 25.0719 13.3262 24.2245C13.0072 23.6144 12.6044 22.0721 12.7219 21.9535C12.7554 21.9026 13.108 22.0043 13.5109 22.1399C14.6692 22.5636 14.8203 22.4619 14.1488 21.7501C12.8897 20.4621 12.5036 18.5469 13.108 16.7335L13.3934 15.92L14.5013 17.0216C16.7677 19.2418 19.4369 20.5637 22.4922 20.9536L23.3316 21.0552Z" fill="white"/>
</svg>
