<svg width="33" height="33" viewBox="0 0 33 33" fill="none" xmlns="http://www.w3.org/2000/svg">
<g clip-path="url(#clip0_2_14)">
<path d="M16.4252 16.8153C18.0074 16.8153 19.5541 16.3461 20.8697 15.467C22.1853 14.588 23.2107 13.3385 23.8162 11.8767C24.4217 10.4149 24.5801 8.80638 24.2715 7.25454C23.9628 5.70269 23.2008 4.27722 22.082 3.1584C20.9632 2.03958 19.5377 1.27766 17.9859 0.968976C16.434 0.660294 14.8255 0.81872 13.3637 1.42422C11.9019 2.02972 10.6525 3.0551 9.77341 4.3707C8.89436 5.68629 8.42517 7.23301 8.42517 8.81526C8.42729 10.9363 9.27082 12.9699 10.7707 14.4698C12.2705 15.9696 14.3041 16.8131 16.4252 16.8153ZM16.4252 3.48192C17.48 3.48192 18.5112 3.79472 19.3882 4.38075C20.2653 4.96679 20.9489 5.79974 21.3525 6.77428C21.7562 7.74882 21.8618 8.82117 21.656 9.85574C21.4502 10.8903 20.9423 11.8406 20.1964 12.5865C19.4505 13.3324 18.5002 13.8403 17.4657 14.0461C16.4311 14.2519 15.3587 14.1463 14.3842 13.7426C13.4097 13.3389 12.5767 12.6554 11.9907 11.7783C11.4046 10.9012 11.0918 9.87009 11.0918 8.81526C11.0918 7.40077 11.6537 6.04422 12.6539 5.04402C13.6541 4.04383 15.0107 3.48192 16.4252 3.48192Z" fill="black"/>
<path d="M16.4252 19.4828C13.2437 19.4863 10.1935 20.7518 7.94379 23.0014C5.69412 25.2511 4.4287 28.3013 4.42517 31.4828C4.42517 31.8364 4.56565 32.1756 4.8157 32.4256C5.06574 32.6757 5.40488 32.8162 5.7585 32.8162C6.11213 32.8162 6.45126 32.6757 6.70131 32.4256C6.95136 32.1756 7.09184 31.8364 7.09184 31.4828C7.09184 29.0075 8.07517 26.6335 9.82551 24.8832C11.5758 23.1328 13.9498 22.1495 16.4252 22.1495C18.9005 22.1495 21.2745 23.1328 23.0248 24.8832C24.7752 26.6335 25.7585 29.0075 25.7585 31.4828C25.7585 31.8364 25.899 32.1756 26.149 32.4256C26.3991 32.6757 26.7382 32.8162 27.0918 32.8162C27.4455 32.8162 27.7846 32.6757 28.0346 32.4256C28.2847 32.1756 28.4252 31.8364 28.4252 31.4828C28.4216 28.3013 27.1562 25.2511 24.9066 23.0014C22.6569 20.7518 19.6067 19.4863 16.4252 19.4828Z" fill="black"/>
</g>
<defs>
<clipPath id="clip0_2_14">
<rect width="32" height="32" fill="white" transform="translate(0.425171 0.815338)"/>
</clipPath>
</defs>
</svg>
